<svg width="44" height="32" viewBox="0 0 44 32" fill="none" xmlns="http://www.w3.org/2000/svg" >
<path d="M37.0816 2.76593C37.069 2.74296 37.0483 2.72526 37.0232 2.71618C34.2423 1.47351 31.3078 0.587072 28.2929 0.0790007C28.2658 0.0741665 28.2379 0.0777415 28.213 0.089221C28.1881 0.1007 28.1676 0.119504 28.1542 0.142975C27.7544 0.849747 27.3913 1.57571 27.0666 2.31811C23.815 1.8375 20.5076 1.8375 17.256 2.31811C16.9299 1.57388 16.5619 0.847731 16.1537 0.142975C16.1396 0.120204 16.119 0.101986 16.0943 0.0906058C16.0696 0.0792256 16.042 0.0751886 16.015 0.0790007C12.9949 0.584784 10.0552 1.47129 7.27013 2.71618C7.24571 2.72626 7.22524 2.7437 7.21174 2.76593C1.64946 10.8623 0.123845 18.7525 0.868402 26.5503C0.87051 26.5699 0.876791 26.5889 0.886845 26.606C0.896899 26.6231 0.910505 26.638 0.926799 26.6498C4.16682 28.9835 7.79025 30.7646 11.6426 31.917C11.6703 31.9254 11.6999 31.925 11.7274 31.9161C11.7549 31.9072 11.7789 31.8901 11.7959 31.8673C12.6224 30.7715 13.3549 29.6113 13.9857 28.3984C13.9941 28.3817 13.9989 28.3635 13.9998 28.345C14.0006 28.3264 13.9975 28.3079 13.9907 28.2905C13.9838 28.2732 13.9733 28.2574 13.9599 28.2441C13.9465 28.2309 13.9305 28.2205 13.9128 28.2136C12.7554 27.7817 11.6351 27.2612 10.5622 26.6569C10.5433 26.6456 10.5274 26.63 10.5159 26.6115C10.5044 26.5929 10.4977 26.572 10.4963 26.5504C10.4948 26.5288 10.4987 26.5072 10.5077 26.4874C10.5166 26.4675 10.5303 26.4501 10.5476 26.4365C10.7739 26.273 11.0002 26.1024 11.2119 25.9318C11.2306 25.9159 11.2535 25.9054 11.2781 25.9016C11.3026 25.8979 11.3278 25.9009 11.3506 25.9105C18.3728 29.0311 25.979 29.0311 32.9209 25.9105C32.943 25.9 32.9678 25.8957 32.9923 25.8982C33.0168 25.9007 33.0401 25.9099 33.0596 25.9247C33.2712 26.0953 33.4975 26.273 33.7238 26.4365C33.7411 26.4501 33.7548 26.4675 33.7638 26.4874C33.7727 26.5072 33.7766 26.5288 33.7752 26.5504C33.7738 26.572 33.767 26.5929 33.7555 26.6115C33.7441 26.63 33.7282 26.6456 33.7092 26.6569C32.6392 27.2643 31.5183 27.7827 30.3587 28.2065C30.341 28.2134 30.3249 28.2238 30.3115 28.237C30.2981 28.2503 30.2877 28.266 30.2808 28.2834C30.274 28.3007 30.2709 28.3193 30.2717 28.3379C30.2725 28.3564 30.2773 28.3746 30.2857 28.3913C30.9276 29.5982 31.6595 30.7576 32.4756 31.8602C32.4926 31.883 32.5165 31.9001 32.544 31.909C32.5715 31.9179 32.6012 31.9183 32.6289 31.9099C36.4923 30.7626 40.1262 28.9813 43.3739 26.6427C43.3905 26.6313 43.4043 26.6164 43.4144 26.5992C43.4245 26.582 43.4306 26.5629 43.4323 26.5432C44.3228 17.537 41.9285 9.71073 37.0816 2.76593ZM15.0369 21.8019C12.92 21.8019 11.1827 19.9111 11.1827 17.5938C11.1827 15.2765 12.8908 13.3786 15.0369 13.3786C17.2049 13.3786 18.9276 15.2836 18.8911 17.5867C18.8911 19.9111 17.183 21.8019 15.0369 21.8019ZM29.3003 21.8019C27.1834 21.8019 25.4461 19.9111 25.4461 17.5938C25.4461 15.2765 27.1469 13.3786 29.3003 13.3786C31.4682 13.3786 33.1909 15.2836 33.1544 17.5867C33.1544 19.9111 31.4609 21.8019 29.3003 21.8019Z" fill="#b0b8c7"/>
</svg>
